<svg xmlns="http://www.w3.org/2000/svg" version="1.1" xmlns:xlink="http://www.w3.org/1999/xlink" xmlns:svgjs="http://svgjs.dev/svgjs" width="2000" height="373" viewBox="0 0 2000 373"><g transform="matrix(1,0,0,1,-1.2120725302340816,-0.9503327990350954)"><svg viewBox="0 0 396 74" data-background-color="#ffffff" preserveAspectRatio="xMidYMid meet" height="373" width="2000" xmlns="http://www.w3.org/2000/svg" xmlns:xlink="http://www.w3.org/1999/xlink"><defs></defs><g id="tight-bounds" transform="matrix(1,0,0,1,0.23999106973735707,0.18853787433940283)"><svg viewBox="0 0 395.52 73.62292425132118" height="73.62292425132118" width="395.52"><g><svg viewBox="0 0 395.52 73.62292425132118" height="73.62292425132118" width="395.52"><g><svg viewBox="0 0 395.52 73.62292425132118" height="73.62292425132118" width="395.52"><g><svg viewBox="0 0 395.52 73.62292425132118" height="73.62292425132118" width="395.52"><g><svg viewBox="0 0 395.52 73.62292425132118" height="73.62292425132118" width="395.52"><g transform="matrix(1,0,0,1,0,0)"><svg width="395.52" viewBox="4.850000381469727 -36.230003356933594 212.87998962402344 36.6300048828125" height="73.62292425132118" data-palette-color="#0b0c0e"><svg></svg><g class="undefined-text-0" data-fill-palette-color="primary" id="text-0"><path d="M13.35-14.95h-3.67v14.95h-4.83v-35.83h10.13c2.267 0 4.223 0.23 5.87 0.69 1.653 0.46 3.017 1.123 4.09 1.99 1.073 0.867 1.87 1.913 2.39 3.14 0.513 1.22 0.77 2.59 0.77 4.11v0c0 1.267-0.2 2.45-0.6 3.55-0.4 1.1-0.98 2.087-1.74 2.96-0.753 0.88-1.677 1.627-2.77 2.24-1.093 0.613-2.33 1.08-3.71 1.4v0c0.6 0.347 1.133 0.853 1.6 1.52v0l10.45 14.23h-4.3c-0.887 0-1.537-0.343-1.95-1.03v0l-9.3-12.8c-0.287-0.4-0.597-0.687-0.93-0.86-0.333-0.173-0.833-0.26-1.5-0.26zM9.68-32v13.52h5.07c1.42 0 2.667-0.17 3.74-0.51 1.073-0.34 1.973-0.823 2.7-1.45 0.727-0.627 1.273-1.373 1.64-2.24 0.367-0.867 0.55-1.823 0.55-2.87v0c0-2.133-0.707-3.743-2.12-4.83-1.407-1.08-3.5-1.62-6.28-1.62v0zM36.55-35.83h22.08v3.95h-17.2v11.9h13.92v3.8h-13.92v12.23h17.2v3.95h-22.08zM64.45-2.75v0c0-0.433 0.08-0.843 0.24-1.23 0.153-0.38 0.37-0.713 0.65-1 0.273-0.28 0.603-0.503 0.99-0.67 0.38-0.167 0.787-0.25 1.22-0.25v0c0.433 0 0.843 0.083 1.23 0.25 0.38 0.167 0.713 0.39 1 0.67 0.28 0.287 0.5 0.62 0.66 1 0.153 0.387 0.23 0.797 0.23 1.23v0c0 0.447-0.077 0.86-0.23 1.24-0.16 0.373-0.38 0.7-0.66 0.98-0.287 0.287-0.62 0.51-1 0.67-0.387 0.16-0.797 0.24-1.23 0.24v0c-0.433 0-0.84-0.08-1.22-0.24-0.387-0.16-0.717-0.383-0.99-0.67-0.28-0.28-0.497-0.607-0.65-0.98-0.16-0.38-0.24-0.793-0.24-1.24zM64.45-21.5v0c0-0.433 0.08-0.843 0.24-1.23 0.153-0.38 0.37-0.713 0.65-1 0.273-0.28 0.603-0.503 0.99-0.67 0.38-0.167 0.787-0.25 1.22-0.25v0c0.433 0 0.843 0.083 1.23 0.25 0.38 0.167 0.713 0.39 1 0.67 0.28 0.287 0.5 0.62 0.66 1 0.153 0.387 0.23 0.797 0.23 1.23v0c0 0.447-0.077 0.86-0.23 1.24-0.16 0.373-0.38 0.7-0.66 0.98-0.287 0.287-0.62 0.51-1 0.67-0.387 0.153-0.797 0.23-1.23 0.23v0c-0.433 0-0.84-0.077-1.22-0.23-0.387-0.16-0.717-0.383-0.99-0.67-0.28-0.28-0.497-0.607-0.65-0.98-0.16-0.38-0.24-0.793-0.24-1.24zM97.72-32.52l-1.17 2.29c-0.153 0.253-0.313 0.443-0.48 0.57-0.167 0.12-0.383 0.18-0.65 0.18v0c-0.28 0-0.607-0.14-0.98-0.42-0.373-0.287-0.85-0.6-1.43-0.94-0.573-0.34-1.263-0.653-2.07-0.94-0.813-0.28-1.793-0.42-2.94-0.42v0c-1.08 0-2.037 0.147-2.87 0.44-0.833 0.287-1.53 0.68-2.09 1.18-0.56 0.5-0.983 1.09-1.27 1.77-0.28 0.673-0.42 1.4-0.42 2.18v0c0 1 0.247 1.83 0.74 2.49 0.487 0.66 1.137 1.223 1.95 1.69 0.807 0.467 1.723 0.87 2.75 1.21 1.02 0.34 2.07 0.693 3.15 1.06 1.073 0.367 2.123 0.78 3.15 1.24 1.027 0.46 1.943 1.04 2.75 1.74 0.807 0.7 1.457 1.557 1.95 2.57 0.487 1.02 0.73 2.27 0.73 3.75v0c0 1.567-0.267 3.04-0.8 4.42-0.533 1.373-1.31 2.567-2.33 3.58-1.027 1.02-2.287 1.82-3.78 2.4-1.487 0.587-3.183 0.88-5.09 0.88v0c-2.313 0-4.423-0.42-6.33-1.26-1.913-0.847-3.543-1.987-4.89-3.42v0l1.4-2.3c0.133-0.18 0.297-0.333 0.49-0.46 0.187-0.127 0.397-0.19 0.63-0.19v0c0.353 0 0.753 0.19 1.2 0.57 0.453 0.373 1.017 0.783 1.69 1.23 0.673 0.453 1.49 0.867 2.45 1.24 0.96 0.373 2.13 0.56 3.51 0.56v0c1.153 0 2.18-0.157 3.08-0.47 0.9-0.32 1.663-0.767 2.29-1.34 0.62-0.573 1.097-1.26 1.43-2.06 0.333-0.8 0.5-1.693 0.5-2.68v0c0-1.08-0.243-1.967-0.73-2.66-0.493-0.693-1.14-1.273-1.94-1.74-0.8-0.467-1.713-0.86-2.74-1.18-1.027-0.327-2.077-0.66-3.15-1-1.073-0.347-2.123-0.743-3.15-1.19-1.027-0.453-1.94-1.037-2.74-1.75-0.8-0.72-1.443-1.617-1.93-2.69-0.493-1.073-0.74-2.403-0.74-3.99v0c0-1.267 0.247-2.49 0.74-3.67 0.487-1.187 1.197-2.237 2.13-3.15 0.94-0.92 2.097-1.653 3.47-2.2 1.373-0.553 2.95-0.83 4.73-0.83v0c2 0 3.827 0.32 5.48 0.96 1.653 0.627 3.093 1.543 4.32 2.75zM133.75-35.83v35.83h-4.87v-16.3h-19.31v16.3h-4.87v-35.83h4.87v15.98h19.31v-15.98zM148.25-35.83v35.83h-4.85v-35.83zM160.35-35.83v0c0.433 0 0.753 0.057 0.96 0.17 0.213 0.107 0.453 0.327 0.72 0.66v0l20.75 27c-0.053-0.433-0.087-0.853-0.1-1.26-0.02-0.413-0.03-0.81-0.03-1.19v0-25.38h4.25v35.83h-2.45c-0.38 0-0.7-0.067-0.96-0.2-0.26-0.133-0.517-0.36-0.77-0.68v0l-20.72-26.97c0.033 0.413 0.057 0.82 0.07 1.22 0.02 0.4 0.03 0.767 0.03 1.1v0 25.53h-4.25v-35.83zM195.65-35.83h22.08v3.95h-17.2v11.9h13.92v3.8h-13.92v12.23h17.2v3.95h-22.08z" data-fill-palette-color="primary" fill="#000000" opacity="1"></path></g></svg></g></svg></g></svg></g></svg></g></svg></g></svg><rect width="395.52" height="73.62292425132118" fill="none" stroke="none" visibility="hidden"></rect></g></svg></g></svg>